<?xml version="1.0" standalone="no"?>
<!DOCTYPE svg PUBLIC "-//W3C//DTD SVG 20010904//EN"
 "http://www.w3.org/TR/2001/REC-SVG-20010904/DTD/svg10.dtd">
<svg version="1.0" xmlns="http://www.w3.org/2000/svg"
 width="1086.000000pt" height="1086.000000pt" viewBox="0 0 1086.000000 1086.000000"
 preserveAspectRatio="xMidYMid meet">
<metadata>
Created by potrace 1.11, written by Peter Selinger 2001-2013
</metadata>
<g transform="translate(0.000000,1086.000000) scale(0.100000,-0.100000)"
fill="#000000" stroke="none">
<path d="M5221 10414 c-1 -6 -11 -9 -25 -7 -18 4 -25 0 -29 -17 -3 -12 -10
-19 -16 -15 -6 3 -9 10 -6 15 10 16 -18 23 -30 7 -8 -11 -15 -13 -22 -6 -7 7
-15 5 -27 -6 -9 -9 -21 -13 -27 -9 -8 4 -9 3 -5 -4 4 -7 3 -12 -3 -12 -6 0 -8
-6 -5 -14 6 -16 -47 -18 -58 -2 -8 11 -108 -31 -121 -51 -4 -6 -16 -10 -27 -8
-11 2 -20 -1 -20 -7 0 -6 -9 -8 -19 -5 -14 3 -18 1 -14 -9 4 -10 0 -12 -11 -8
-9 3 -14 10 -11 14 5 8 -53 6 -61 -3 -3 -3 -1 -15 6 -26 7 -14 7 -21 0 -21 -5
0 -10 6 -10 14 0 9 -9 14 -20 13 -11 -1 -20 -5 -20 -10 0 -5 -7 -6 -16 -3 -8
3 -13 2 -10 -3 6 -10 -18 -23 -46 -26 -10 -1 -24 -8 -33 -15 -8 -7 -15 -9 -15
-5 0 4 -8 1 -17 -6 -14 -12 -16 -12 -9 1 6 12 4 11 -6 -1 -7 -9 -18 -14 -23
-12 -6 2 -22 -7 -35 -19 -14 -13 -29 -22 -34 -20 -4 2 -6 -3 -3 -11 4 -10 -2
-13 -19 -11 -13 1 -24 -2 -24 -7 0 -6 -4 -8 -9 -5 -5 3 -12 -1 -15 -10 -4 -9
-13 -14 -21 -10 -8 3 -15 0 -15 -6 0 -6 -3 -8 -7 -5 -3 4 -12 2 -20 -4 -7 -6
-13 -9 -13 -5 0 8 -35 -27 -50 -50 -10 -17 -11 -17 -6 -1 3 11 2 15 -4 12 -6
-3 -10 -13 -10 -21 0 -8 -7 -14 -15 -14 -8 0 -15 -5 -15 -12 0 -6 -3 -8 -6 -5
-4 4 -14 -1 -23 -11 -16 -19 -50 -36 -63 -34 -5 1 -8 -3 -8 -8 0 -6 -5 -10
-11 -10 -7 0 -24 -13 -40 -29 -15 -16 -31 -26 -35 -23 -5 4 -2 -1 5 -10 12
-16 11 -18 -3 -18 -11 0 -14 -5 -10 -12 5 -8 2 -9 -10 -5 -10 4 -19 1 -23 -9
-3 -8 -12 -13 -19 -10 -9 4 -14 -2 -14 -15 0 -11 -4 -17 -10 -14 -5 3 -10 1
-10 -4 0 -6 -7 -11 -15 -11 -8 0 -15 -5 -15 -11 0 -5 -4 -8 -9 -5 -5 3 -14 -1
-21 -9 -7 -8 -16 -12 -21 -9 -5 3 -18 -18 -31 -45 -12 -28 -25 -48 -29 -46 -4
3 -12 -8 -17 -25 -6 -16 -20 -39 -30 -50 -13 -14 -18 -29 -14 -43 3 -12 2 -19
-3 -15 -17 16 -103 -100 -87 -117 4 -5 -1 -5 -11 -2 -11 4 -16 3 -12 -3 3 -5
-5 -20 -18 -32 -13 -13 -30 -39 -37 -58 -8 -19 -27 -48 -42 -64 -15 -16 -28
-35 -28 -42 0 -8 -5 -14 -11 -14 -5 0 -8 -4 -4 -9 3 -5 1 -12 -5 -16 -16 -10
-51 -85 -45 -95 3 -6 -1 -10 -9 -10 -9 0 -17 -4 -17 -10 -3 -21 -5 -26 -23
-52 -10 -15 -14 -33 -10 -39 4 -8 3 -9 -4 -5 -15 9 -15 1 -1 -25 14 -28 20
-59 9 -59 -4 0 -13 -13 -19 -30 -5 -16 -15 -30 -21 -30 -6 0 -9 -4 -6 -9 3 -5
-5 -20 -19 -35 -13 -14 -22 -26 -20 -26 3 0 0 -11 -5 -25 -6 -15 -6 -25 0 -25
5 0 5 -12 0 -30 -6 -20 -5 -30 2 -30 6 0 5 -7 -3 -17 -8 -9 -14 -23 -14 -32 0
-9 -4 -22 -9 -30 -5 -8 -4 -16 5 -22 12 -7 12 -9 0 -9 -11 0 -11 -3 0 -17 9
-10 9 -14 2 -10 -8 5 -8 -1 2 -19 8 -15 11 -32 8 -37 -3 -6 -1 -7 5 -3 12 7
13 4 17 -39 1 -11 5 -42 10 -70 5 -27 8 -54 7 -58 -1 -4 -3 -19 -4 -32 -1 -14
-5 -25 -8 -25 -4 0 -5 -86 0 -92 6 -9 7 -38 1 -38 -4 0 -7 -15 -7 -32 1 -23
-6 -39 -22 -51 -12 -10 -20 -22 -17 -27 3 -4 -1 -13 -9 -19 -7 -6 -12 -25 -11
-41 1 -18 -3 -31 -12 -34 -8 -3 -12 -10 -8 -15 3 -6 -3 -14 -12 -20 -10 -6
-14 -11 -10 -11 4 0 -8 -14 -28 -31 -19 -17 -35 -37 -35 -45 0 -8 -5 -14 -11
-14 -5 0 -8 -4 -4 -9 3 -5 1 -12 -4 -15 -5 -4 -8 -17 -6 -31 1 -14 -2 -25 -6
-25 -5 0 -9 -16 -9 -35 0 -19 -4 -35 -8 -35 -8 0 -8 -31 2 -125 3 -22 5 -55 5
-73 1 -18 4 -31 9 -29 4 3 8 -13 9 -36 2 -22 6 -43 10 -46 7 -5 12 -25 16 -71
1 -8 7 -18 12 -22 7 -5 7 -8 0 -8 -13 0 -12 -90 0 -110 5 -8 10 -35 11 -60 4
-61 8 -81 22 -107 7 -13 10 -23 8 -23 -3 0 4 -16 15 -36 16 -30 18 -39 7 -45
-10 -7 -10 -9 -1 -9 7 0 12 -3 11 -7 -1 -5 2 -20 6 -34 4 -14 8 -33 10 -42 1
-9 5 -20 9 -23 4 -4 7 -24 7 -45 0 -21 5 -41 10 -44 6 -4 9 -19 7 -33 -3 -15
0 -32 5 -38 5 -7 9 -29 10 -50 0 -22 5 -44 9 -50 5 -6 7 -20 4 -32 -2 -11 3
-26 10 -32 8 -6 11 -19 8 -28 -3 -9 -3 -14 2 -10 4 4 21 -19 37 -52 17 -33 34
-60 39 -60 5 0 8 -3 7 -7 -3 -16 15 -43 25 -36 5 3 7 1 4 -4 -9 -15 36 -60 56
-57 9 1 17 -2 17 -7 0 -5 11 -9 25 -9 14 0 25 -3 26 -7 7 -48 3 -73 -11 -73
-13 -1 -13 -2 0 -13 9 -7 15 -28 14 -52 -1 -24 6 -48 16 -60 12 -14 17 -35 15
-70 -1 -27 2 -55 6 -60 13 -17 17 -69 6 -82 -7 -9 -5 -13 6 -13 10 0 14 -8 13
-25 -2 -13 5 -34 16 -45 11 -12 17 -24 14 -27 -3 -3 0 -15 6 -27 13 -23 15
-28 17 -52 0 -8 5 -12 11 -9 6 3 7 -1 4 -9 -3 -9 -1 -16 5 -16 6 0 10 -3 9 -7
-1 -5 3 -17 9 -28 6 -11 9 -29 7 -39 -1 -11 6 -26 17 -34 10 -7 19 -18 19 -23
0 -6 7 -17 15 -25 8 -9 13 -26 11 -40 -3 -13 0 -24 5 -24 5 0 9 -5 9 -10 0 -6
9 -21 20 -33 11 -12 18 -27 16 -34 -3 -7 4 -22 15 -32 12 -11 18 -24 15 -29
-3 -5 1 -15 9 -22 7 -6 11 -18 8 -26 -4 -11 0 -15 13 -12 10 2 19 -3 19 -10 0
-8 9 -20 19 -28 11 -8 16 -14 11 -14 -4 0 5 -13 22 -28 23 -23 29 -36 27 -65
-1 -20 3 -37 8 -37 5 0 7 -4 4 -9 -3 -5 1 -12 10 -15 9 -4 14 -9 11 -13 -4 -3
-2 -14 4 -24 9 -17 14 -52 22 -144 1 -16 6 -33 11 -36 4 -4 10 -19 12 -35 2
-16 9 -51 14 -79 6 -27 12 -61 14 -74 1 -14 7 -26 12 -28 11 -4 7 -114 -4
-123 -4 -3 -8 -21 -9 -40 -1 -19 -2 -46 -3 -60 -3 -34 8 -74 20 -78 6 -2 7 -9
3 -15 -4 -6 -6 -26 -5 -43 2 -18 -4 -39 -13 -47 -8 -9 -15 -18 -15 -22 0 -14
-31 -36 -59 -41 -17 -4 -31 -11 -31 -17 0 -6 -3 -7 -7 -4 -3 4 -12 -2 -20 -13
-8 -11 -19 -20 -24 -20 -6 0 -18 -7 -26 -16 -9 -8 -24 -14 -33 -11 -10 2 -23
-4 -30 -14 -11 -14 -18 -16 -33 -7 -14 7 -17 7 -13 -1 4 -6 0 -11 -9 -11 -9 0
-29 -9 -45 -20 -15 -11 -31 -16 -35 -12 -5 4 -6 3 -3 -3 3 -5 -3 -18 -14 -27
-10 -10 -18 -15 -18 -12 0 4 -10 -6 -22 -22 -30 -39 -51 -54 -65 -49 -7 2 -15
0 -18 -5 -4 -6 -17 -10 -30 -10 -13 0 -29 -8 -34 -17 -6 -10 -11 -15 -11 -11
0 4 -12 1 -27 -7 -15 -8 -30 -12 -34 -10 -4 3 -9 -2 -13 -10 -3 -8 -12 -15
-20 -15 -8 0 -16 -6 -19 -12 -3 -10 -8 -10 -21 1 -14 12 -16 12 -10 -4 5 -11
3 -16 -3 -12 -5 3 -17 -3 -26 -14 -10 -11 -22 -17 -28 -14 -5 4 -8 3 -7 -2 2
-4 -1 -9 -5 -10 -5 -1 -17 -11 -27 -23 -11 -12 -23 -19 -29 -16 -5 3 -16 -1
-24 -9 -9 -9 -23 -12 -33 -8 -11 4 -15 3 -10 -5 3 -6 2 -13 -3 -16 -5 -4 -12
-2 -16 4 -4 6 -11 8 -16 4 -5 -3 -6 -10 -3 -16 5 -7 1 -9 -9 -5 -8 3 -21 0
-27 -8 -6 -8 -18 -11 -26 -8 -8 3 -14 1 -14 -4 0 -4 -10 -14 -21 -22 -18 -11
-23 -11 -30 1 -7 10 -9 9 -9 -4 0 -15 -34 -35 -52 -30 -5 1 -8 -2 -8 -7 0 -5
-9 -11 -21 -14 -14 -4 -18 -10 -13 -19 6 -11 5 -11 -8 0 -13 10 -17 10 -22 -3
-3 -8 -9 -14 -13 -14 -16 4 -43 -13 -37 -23 4 -6 1 -9 -7 -6 -8 3 -22 -4 -31
-14 -9 -11 -22 -17 -27 -13 -6 3 -11 1 -11 -5 0 -6 -11 -15 -25 -20 -14 -5
-25 -14 -25 -20 0 -6 -4 -8 -10 -5 -5 3 -15 -3 -22 -15 -7 -11 -21 -20 -30
-20 -10 0 -23 -9 -30 -20 -7 -11 -20 -20 -30 -20 -9 0 -24 -10 -32 -22 -9 -12
-16 -18 -16 -13 0 6 -5 3 -10 -5 -5 -8 -13 -15 -17 -15 -19 -1 -92 -39 -88
-46 3 -4 -3 -5 -13 -2 -10 2 -28 -5 -42 -17 -13 -11 -30 -18 -37 -15 -8 2 -11
1 -8 -5 7 -11 -29 -32 -39 -23 -3 3 -6 1 -6 -6 0 -8 -8 -11 -20 -8 -11 3 -18
0 -17 -7 1 -6 -8 -10 -20 -10 -13 1 -20 -2 -18 -6 6 -10 -24 -22 -36 -14 -5 3
-9 1 -9 -5 0 -6 -16 -18 -35 -27 -19 -9 -35 -20 -35 -25 0 -5 -9 -9 -19 -9
-11 0 -26 -6 -33 -12 -7 -7 -19 -14 -27 -16 -7 -1 -20 -9 -28 -17 -14 -14 -28
-19 -46 -16 -5 1 -6 -3 -3 -8 4 -5 -7 -12 -24 -16 -16 -4 -30 -11 -30 -16 0
-6 5 -7 12 -3 7 5 8 3 4 -5 -5 -7 -11 -10 -14 -7 -3 3 -12 0 -20 -7 -13 -9
-14 -9 -8 0 4 7 2 13 -3 13 -6 0 -11 -5 -11 -11 0 -5 -5 -7 -10 -4 -6 4 -9 1
-8 -6 2 -7 -7 -18 -19 -24 -13 -5 -23 -13 -23 -18 0 -4 -4 -6 -10 -2 -5 3 -18
-3 -30 -15 -11 -11 -20 -17 -20 -14 0 4 -6 1 -13 -5 -8 -6 -17 -7 -21 -3 -4 4
-6 1 -4 -7 1 -7 -6 -15 -16 -17 -10 -1 -22 -6 -25 -11 -3 -4 -15 -15 -25 -23
-18 -13 -19 -13 -11 0 4 8 -2 5 -14 -7 -12 -13 -32 -23 -44 -23 -18 0 -19 -2
-7 -10 13 -8 13 -10 -2 -11 -32 -3 -36 -4 -45 -13 -5 -5 -2 -6 6 -1 9 5 12 4
7 -3 -4 -7 -14 -12 -22 -12 -9 0 -12 -5 -8 -12 5 -8 2 -9 -9 -5 -20 7 -49 -2
-42 -13 3 -4 -2 -11 -11 -14 -10 -4 -13 -2 -8 6 4 7 -7 2 -24 -10 -17 -13 -34
-27 -37 -32 -3 -5 -12 -7 -21 -3 -9 3 -14 0 -12 -8 2 -7 -6 -15 -17 -17 -11
-2 -27 -12 -35 -22 -8 -9 -20 -15 -27 -13 -6 2 -17 -5 -23 -17 -6 -11 -15 -18
-20 -15 -5 3 -12 -1 -17 -8 -4 -7 -22 -22 -40 -32 -18 -10 -30 -22 -27 -27 3
-4 0 -9 -5 -9 -6 -1 -15 -3 -21 -4 -5 -1 -14 -3 -20 -4 -5 0 -10 -8 -10 -16 0
-14 -12 -20 -33 -16 -5 1 -6 -3 -2 -9 3 -5 1 -10 -4 -10 -6 0 -11 -7 -11 -15
0 -8 -4 -15 -10 -15 -5 0 -23 -14 -40 -30 -17 -17 -35 -30 -40 -30 -6 0 -9 -4
-8 -8 2 -5 -12 -25 -29 -46 -18 -20 -33 -34 -33 -31 0 9 -22 -15 -43 -45 -10
-14 -22 -26 -27 -26 -23 -3 -24 -5 -10 -14 13 -8 12 -10 -3 -10 -10 0 -16 -4
-12 -9 3 -6 -3 -14 -12 -20 -10 -6 -14 -11 -8 -11 5 0 -1 -7 -13 -16 -12 -8
-20 -19 -18 -23 3 -4 -4 -14 -15 -21 -10 -8 -19 -22 -19 -32 0 -10 -7 -18 -16
-18 -10 0 -14 -6 -11 -14 3 -8 -1 -20 -9 -27 -14 -12 -42 -59 -46 -76 -1 -5
-8 -14 -15 -21 -7 -7 -13 -20 -13 -28 0 -8 -4 -14 -8 -14 -4 0 -14 -16 -21
-35 -7 -19 -16 -33 -20 -30 -8 4 -25 -50 -22 -67 0 -5 -4 -8 -10 -8 -5 0 -8
-4 -4 -9 3 -6 -1 -13 -9 -18 -15 -8 -16 -10 -16 -44 0 -11 -4 -18 -9 -15 -5 3
-12 -10 -15 -30 -4 -19 -14 -38 -21 -41 -8 -3 -13 -9 -10 -13 3 -5 -1 -14 -8
-22 -15 -15 -16 -15 -23 -45 -4 -13 -11 -23 -16 -23 -6 0 -4 -8 3 -17 10 -11
10 -14 1 -9 -7 4 -12 2 -12 -7 0 -8 -7 -20 -15 -27 -9 -7 -13 -15 -11 -18 3
-2 -6 -25 -19 -51 -14 -25 -25 -54 -25 -63 0 -10 -5 -18 -11 -18 -5 0 -8 -4
-4 -9 6 -11 -15 -61 -26 -61 -4 0 -6 -11 -4 -25 1 -14 -2 -25 -8 -25 -6 0 -7
-3 -4 -7 4 -3 1 -16 -6 -27 -8 -12 -13 -29 -11 -38 1 -10 -2 -18 -7 -18 -5 0
-9 -9 -9 -19 0 -11 -7 -26 -15 -34 -8 -8 -11 -17 -8 -21 3 -3 2 -11 -4 -18 -9
-12 -12 -30 -16 -80 -1 -10 -4 -18 -8 -18 -4 0 -9 -12 -12 -27 -3 -16 -9 -36
-12 -45 -7 -17 255 -18 5418 -18 l5426 0 0 1338 c0 736 -4 1344 -8 1351 -6 9
-11 10 -15 2 -4 -6 -14 -3 -26 9 -10 10 -28 17 -39 15 -15 -3 -18 0 -14 13 6
15 4 15 -9 4 -14 -11 -17 -10 -23 8 -3 11 -10 18 -15 15 -5 -3 -12 0 -15 6 -4
5 -14 8 -22 5 -8 -3 -11 -1 -8 4 4 6 -7 10 -25 10 -20 0 -29 4 -24 11 4 8 0 9
-15 4 -14 -4 -23 -2 -27 9 -5 12 -10 13 -26 5 -15 -8 -19 -8 -14 0 4 7 -1 11
-13 11 -12 0 -21 6 -21 13 0 9 -2 9 -9 -1 -10 -17 -21 -17 -31 -1 -5 7 -21 14
-37 15 -52 6 -68 10 -88 20 -11 6 -33 10 -50 9 -16 -1 -42 5 -57 12 -19 9 -29
10 -34 2 -5 -8 -8 -8 -14 0 -4 7 -23 13 -43 14 -21 1 -37 6 -37 11 0 5 -3 7
-6 3 -4 -3 -28 2 -55 13 -27 10 -49 14 -49 8 0 -5 -12 -2 -27 6 -37 20 -64 29
-88 30 -11 1 -26 5 -33 10 -7 4 -16 6 -19 2 -3 -3 -11 1 -19 8 -7 7 -23 11
-36 9 -14 -3 -31 3 -44 16 -14 12 -30 18 -43 14 -13 -3 -21 -1 -21 7 0 7 -7
10 -15 6 -8 -3 -15 -1 -15 5 0 6 -4 7 -10 4 -5 -3 -10 -1 -10 5 0 7 -6 10 -14
7 -8 -3 -16 -2 -18 3 -2 5 -13 11 -25 13 -12 2 -26 6 -29 10 -4 4 -20 7 -36 7
-15 0 -28 5 -28 11 0 8 -4 8 -14 0 -11 -10 -16 -8 -21 8 -5 17 -10 19 -25 11
-13 -7 -19 -6 -24 6 -4 10 -13 14 -22 10 -10 -4 -13 -2 -8 6 5 7 0 9 -14 6
-15 -4 -22 -2 -22 8 0 9 -11 14 -31 14 -16 0 -28 4 -24 9 3 6 -4 8 -15 6 -11
-2 -24 3 -30 13 -7 12 -9 13 -10 3 0 -11 -4 -11 -18 2 -10 10 -22 14 -26 10
-4 -5 -13 -1 -19 7 -7 8 -21 15 -32 15 -11 0 -19 6 -17 13 2 10 -2 10 -17 2
-14 -7 -23 -6 -33 3 -7 7 -17 15 -23 17 -23 7 -45 26 -45 37 0 7 -4 14 -10 14
-5 1 -15 2 -20 3 -6 0 -15 8 -20 16 -5 8 -10 11 -10 6 0 -5 -7 -3 -15 4 -8 6
-18 9 -24 6 -5 -3 -11 1 -14 9 -4 8 -15 12 -27 10 -11 -2 -18 0 -15 6 4 5 -1
9 -9 9 -9 0 -16 5 -16 11 0 6 -7 9 -15 5 -8 -3 -14 0 -12 6 1 7 -5 12 -13 13
-8 1 -14 7 -12 13 2 10 -3 10 -18 2 -16 -9 -20 -8 -20 4 0 10 -6 13 -15 10 -9
-4 -15 0 -15 10 0 9 -4 16 -10 16 -5 0 -10 -5 -10 -11 0 -5 -5 -7 -10 -4 -6 4
-7 11 -4 17 5 7 1 9 -9 5 -9 -3 -18 0 -21 9 -3 9 -10 13 -15 9 -5 -3 -13 0
-16 6 -4 5 -14 8 -22 5 -8 -3 -11 -1 -8 4 3 6 -3 10 -14 10 -12 0 -21 6 -21
14 0 9 -7 12 -20 9 -11 -3 -20 0 -20 6 0 6 -7 11 -15 11 -8 0 -15 4 -15 9 0 5
-11 8 -25 5 -14 -2 -25 0 -25 5 0 10 -56 26 -76 23 -7 -1 -14 4 -17 13 -4 8
-13 12 -22 9 -8 -4 -22 -1 -30 6 -8 6 -19 9 -25 5 -5 -3 -10 -2 -10 3 0 5 -9
12 -20 15 -11 3 -20 1 -20 -5 0 -5 -12 0 -26 11 -20 16 -30 18 -45 10 -15 -7
-23 -6 -35 5 -8 8 -21 13 -29 10 -7 -3 -18 4 -25 16 -6 12 -17 19 -25 17 -7
-3 -18 0 -24 6 -6 6 -11 7 -11 2 0 -5 -7 1 -16 13 -8 12 -22 22 -30 22 -8 0
-14 7 -14 16 0 8 -3 13 -7 11 -12 -7 -55 12 -50 20 3 5 -7 9 -21 10 -15 0 -28
6 -30 12 -3 9 -8 9 -18 0 -11 -9 -14 -8 -14 2 0 9 -3 10 -8 4 -9 -12 -32 -18
-32 -7 0 4 -12 8 -26 9 -15 0 -30 7 -34 14 -6 8 -30 12 -75 10 -58 -2 -69 1
-81 18 -8 11 -21 18 -29 15 -10 -4 -15 0 -15 11 0 9 -4 13 -10 10 -5 -3 -10
-1 -10 5 0 6 -4 8 -10 5 -5 -3 -17 3 -27 15 -10 11 -26 20 -36 20 -9 0 -20 7
-23 15 -4 8 -11 12 -17 8 -6 -4 -8 2 -4 16 3 13 3 21 0 18 -6 -7 -83 68 -83
82 0 6 -7 8 -17 4 -10 -4 -14 -2 -10 4 4 6 -1 10 -11 10 -34 0 -43 3 -37 12 3
6 -10 22 -30 38 -19 15 -35 36 -35 46 0 9 -4 17 -10 17 -5 0 -10 11 -10 25 0
14 -5 25 -11 25 -6 0 -9 6 -6 13 2 6 -3 21 -12 31 -13 16 -13 18 -1 11 9 -5 8
0 -4 13 -11 12 -15 22 -11 22 4 0 2 8 -7 18 -8 9 -13 27 -12 39 0 13 -3 23 -7
23 -14 0 -10 58 4 63 9 4 8 6 -2 6 -11 1 -10 5 3 20 13 14 14 21 6 26 -7 5 -8
10 -3 14 15 10 65 103 51 95 -10 -6 -10 -4 0 8 10 13 10 17 0 21 -9 3 -7 10 9
21 15 11 21 25 20 48 -1 19 5 39 13 46 13 12 13 13 0 6 -11 -6 -10 -2 3 13 20
23 23 38 5 27 -8 -5 -7 -1 2 10 18 22 26 71 10 61 -6 -4 -5 8 4 29 8 20 12 36
8 36 -3 0 -1 5 6 12 7 7 12 33 12 58 0 25 6 52 13 59 10 11 9 12 -3 6 -13 -8
-13 -7 -1 8 10 13 10 17 1 17 -9 0 -9 4 -2 13 5 6 10 36 10 66 -1 29 3 56 8
60 5 3 9 40 8 81 0 41 4 80 9 87 5 7 6 16 3 22 -4 5 1 17 10 25 8 9 12 16 8
16 -4 0 1 9 12 21 11 12 26 18 37 15 10 -2 17 -2 14 1 -8 7 16 32 26 26 6 -4
11 12 8 30 0 4 4 7 9 7 6 0 10 11 10 25 0 14 5 25 10 25 6 0 8 11 6 24 -3 16
1 27 11 30 8 4 13 13 9 21 -3 8 -1 15 5 15 6 0 7 5 4 10 -3 6 1 10 10 10 9 0
13 5 9 11 -3 6 -2 14 4 18 7 4 13 16 15 26 1 11 6 25 10 31 4 7 8 28 9 48 2
20 6 36 10 36 4 0 5 11 2 25 -2 14 0 25 7 25 6 0 9 6 6 13 -2 6 0 22 4 35 6
15 5 22 -4 22 -8 0 -7 4 3 10 13 9 13 10 0 10 -12 0 -13 2 -1 9 7 5 10 14 7
20 -4 6 -3 11 1 11 5 0 9 15 11 33 8 111 15 163 23 168 5 3 7 13 3 22 -3 9 -2
17 4 17 5 0 9 15 9 33 -1 18 2 40 6 50 3 9 2 17 -4 17 -6 0 -6 7 1 20 8 15 8
20 -1 20 -9 0 -9 3 0 14 9 10 9 16 1 21 -8 5 -8 10 0 20 8 9 8 15 0 20 -7 4
-7 12 0 26 8 14 7 19 -1 19 -8 0 -8 4 1 15 7 8 9 15 5 15 -4 0 -3 6 3 13 5 6
8 22 6 35 -2 12 0 22 5 22 5 0 11 12 14 28 3 15 11 45 17 67 7 22 12 55 12 73
1 17 3 32 7 32 3 0 5 24 5 52 -1 29 4 59 10 67 9 12 8 14 -5 9 -14 -5 -16 2
-13 45 2 33 -3 60 -12 75 -11 17 -12 22 -2 22 8 1 5 7 -7 16 -11 8 -19 20 -18
25 2 5 -2 9 -8 9 -5 0 -7 5 -4 10 3 6 -1 10 -9 10 -9 0 -16 5 -16 11 0 5 -4 7
-10 4 -5 -3 -10 -1 -10 4 0 6 -3 10 -7 10 -5 -1 -10 0 -13 1 -3 1 -20 2 -38 3
-23 1 -31 -2 -27 -11 3 -7 1 -10 -4 -7 -5 3 -13 1 -16 -5 -9 -15 -34 6 -31 25
1 8 13 27 26 42 13 15 24 38 26 51 1 13 0 21 -3 18 -8 -8 -31 18 -26 30 2 6
-3 16 -10 23 -11 8 -13 21 -7 46 5 21 4 38 -2 41 -5 4 -8 15 -5 25 3 10 2 21
-3 24 -4 2 -5 16 -2 30 3 17 0 25 -9 25 -9 1 -8 4 4 11 17 10 17 13 3 34 -8
12 -12 25 -9 29 10 10 9 76 -2 76 -5 0 -3 5 5 10 18 11 20 32 3 45 -7 6 -14
24 -15 40 -1 17 -6 36 -12 44 -8 11 -8 13 2 7 6 -4 12 -3 12 2 0 6 -8 13 -17
16 -10 4 -13 10 -8 14 13 9 13 55 0 65 -6 4 -4 11 5 17 12 8 12 10 -5 10 -12
0 -16 3 -9 8 17 11 25 42 11 43 -7 0 -3 4 8 9 11 5 15 9 8 9 -15 1 -14 61 1
61 6 0 4 4 -4 10 -8 5 -11 12 -8 16 4 3 -4 16 -18 29 -13 12 -24 26 -24 30 0
4 -8 14 -17 22 -12 10 -13 12 -3 8 13 -6 13 -5 0 7 -19 16 -40 63 -40 88 0 11
-8 24 -18 29 -10 5 -24 25 -32 45 -7 20 -18 36 -22 36 -5 0 -7 4 -3 9 3 5 1
12 -5 16 -6 4 -7 11 -4 17 4 6 2 8 -4 4 -6 -3 -16 7 -24 24 -7 16 -17 30 -21
30 -5 0 -6 4 -3 8 6 10 -41 62 -56 62 -6 0 -5 7 3 17 8 9 9 14 3 10 -7 -4 -14
2 -17 13 -3 11 0 20 5 20 6 0 5 7 -3 16 -17 21 -20 44 -6 44 7 0 6 4 -3 9 -8
6 -17 8 -21 5 -4 -2 -10 3 -13 12 -3 8 -11 12 -17 8 -7 -4 -9 -3 -5 4 3 6 2
13 -3 17 -6 3 -8 12 -4 20 3 10 -1 15 -12 15 -9 0 -14 4 -10 9 3 5 -1 16 -9
24 -8 8 -12 17 -9 21 4 3 -1 6 -10 6 -10 0 -15 7 -12 20 2 11 -1 20 -6 20 -6
0 -7 5 -4 10 3 6 1 10 -4 10 -6 0 -11 7 -11 16 0 9 -9 18 -20 21 -11 3 -17 10
-13 15 3 6 -15 30 -40 53 -26 23 -44 44 -42 47 3 3 -6 11 -20 18 -13 7 -27 21
-31 32 -3 10 -11 18 -19 18 -7 0 -15 9 -18 21 -3 12 -10 18 -16 14 -6 -3 -28
11 -48 31 -21 21 -31 34 -23 29 8 -4 3 4 -12 19 -16 15 -28 31 -28 36 0 6 -8
10 -17 10 -19 1 -53 22 -53 34 0 3 -9 15 -20 26 -11 11 -20 15 -20 9 0 -5 -15
4 -32 21 -18 16 -41 33 -50 36 -10 3 -18 12 -18 20 0 8 -7 14 -15 14 -8 0 -15
5 -15 11 0 5 -4 8 -8 5 -5 -3 -16 4 -25 15 -10 11 -23 17 -29 13 -7 -4 -8 -3
-4 4 4 7 1 12 -8 12 -9 0 -16 7 -16 16 0 8 -5 12 -10 9 -6 -4 -16 -2 -23 3
-12 10 -18 12 -38 12 -5 0 -7 4 -4 10 4 6 -1 7 -11 3 -13 -5 -15 -3 -9 7 5 8
3 11 -6 8 -8 -3 -20 1 -27 8 -7 7 -19 11 -27 8 -8 -4 -15 -1 -15 5 0 6 -9 11
-20 11 -11 0 -20 5 -20 11 0 6 -7 9 -15 5 -8 -3 -21 1 -29 9 -18 18 -30 20
-20 3 4 -7 -2 -5 -14 5 -11 11 -26 16 -31 12 -6 -3 -11 -2 -11 3 0 10 -31 23
-64 27 -10 1 -21 8 -25 14 -4 6 -15 9 -23 6 -9 -4 -18 0 -21 9 -4 9 -15 13
-27 11 -11 -2 -20 1 -20 6 0 6 -8 9 -17 8 -10 -1 -27 1 -38 5 -44 17 -50 19
-63 22 -6 1 -10 -2 -6 -7 3 -5 11 -6 17 -2 7 4 6 0 -2 -10 -18 -22 -30 -21
-51 3 -9 11 -28 22 -41 24 -13 3 -26 5 -29 6 -3 1 -11 3 -18 4 -7 0 -17 8 -22
16 -6 9 -10 10 -10 3 0 -7 -7 -10 -17 -6 -13 5 -15 2 -10 -18 5 -22 5 -22 -7
-6 -10 13 -15 15 -19 5 -3 -9 -10 -7 -24 9 -12 13 -34 24 -54 25 -19 2 -37 10
-41 18 -4 8 -7 10 -7 4z m-11 -40 c0 4 14 -1 30 -11 37 -21 38 -33 4 -33 -14
0 -23 4 -19 10 3 6 -3 10 -14 10 -12 0 -21 5 -21 11 0 5 -4 7 -10 4 -6 -3 -7
1 -4 10 5 12 9 13 20 4 8 -6 14 -8 14 -5z m-220 -54 c0 -12 -26 -30 -33 -23
-4 3 -7 1 -7 -5 0 -6 -7 -9 -15 -6 -8 4 -15 11 -15 17 0 6 3 8 6 4 4 -3 12 0
19 7 14 13 45 17 45 6z m152 -22 c-9 -9 -12 -9 -12 1 0 7 -5 9 -12 5 -9 -5 -8
-2 1 10 10 12 17 14 25 6 7 -7 6 -14 -2 -22z m-412 -39 c0 -4 -7 -9 -15 -13
-9 -3 -15 0 -15 8 0 7 7 13 15 13 8 0 15 -4 15 -8z"/>
</g>
</svg>
