
<svg width="183px" height="150px" viewBox="940 66 183 150" version="1.1" xmlns="http://www.w3.org/2000/svg" xmlns:xlink="http://www.w3.org/1999/xlink">
    <!-- Generator: Sketch 3.7.2 (28276) - http://www.bohemiancoding.com/sketch -->
    <desc>Created with Sketch.</desc>
    <defs>
        <filter x="-50%" y="-50%" width="200%" height="200%" filterUnits="objectBoundingBox" id="filter-1">
            <feOffset dx="0" dy="10" in="SourceAlpha" result="shadowOffsetOuter1"></feOffset>
            <feGaussianBlur stdDeviation="2" in="shadowOffsetOuter1" result="shadowBlurOuter1"></feGaussianBlur>
            <feColorMatrix values="0 0 0 0 0   0 0 0 0 0   0 0 0 0 0  0 0 0 0.5 0" type="matrix" in="shadowBlurOuter1" result="shadowMatrixOuter1"></feColorMatrix>
            <feMerge>
                <feMergeNode in="shadowMatrixOuter1"></feMergeNode>
                <feMergeNode in="SourceGraphic"></feMergeNode>
            </feMerge>
        </filter>
    </defs>
    <g id="1463171925_behance_online_social_media" filter="url(#filter-1)" stroke="none" stroke-width="1" fill="none" fill-rule="evenodd" transform="translate(944.000000, 67.000000)">
        <g id="Flat_copy" fill="#222222">
            <g id="Group">
                <path d="M70.6234375,62.1224 C70.6234375,62.1224 87.1773437,60.5814 87.1773437,36.314 C87.1773437,12.0667 75.95,0.1139 58.7890625,0.1139 L0,-1.42108547e-14 L0,134 L60.15625,134 C60.15625,134 90.234375,135.1658 90.234375,93.8 C90.234375,93.8 92.44375,62.1224 70.6234375,62.1224 L70.6234375,62.1224 Z M21.875,20.1 L51.953125,20.1 C51.953125,20.1 62.2453125,20.3077 62.2453125,36.6557 C62.2453125,53.6 51.953125,53.6 51.953125,53.6 L21.875,53.6 L21.875,20.1 L21.875,20.1 Z M54.6875,113.9 L21.875,113.9 L21.875,73.7 L54.6875,73.7 C54.6875,73.7 71.09375,73.9077 71.09375,93.8 C71.09375,113.6923 57.05,113.9 54.6875,113.9 L54.6875,113.9 Z" id="Shape"></path>
                <path d="M136.71875,33.5 C95.6320312,33.5 95.703125,83.75 95.703125,83.75 C95.703125,83.75 92.96875,134 136.71875,134 C136.71875,134 175,134 175,93.8 L153.125,93.8 C153.125,93.8 153.125,113.9 136.71875,113.9 C136.71875,113.9 120.3125,113.9 120.3125,87.1 L175,87.1 C175,73.7 175,33.5 136.71875,33.5 L136.71875,33.5 Z M120.3125,73.7 C120.3125,73.7 119.951562,53.6 136.71875,53.6 C153.480469,53.6 153.125,73.7 153.125,73.7 L120.3125,73.7 L120.3125,73.7 Z" id="Shape"></path>
                <rect id="Rectangle-path" x="114.84375" y="13.4" width="43.75" height="13.4"></rect>
            </g>
        </g>
    </g>
</svg>